<?xml version="1.0" encoding="UTF-8"?><svg id="a" xmlns="http://www.w3.org/2000/svg" width="49.41mm" height="45.65mm" viewBox="0 0 140.05 129.41"><path d="M11.9,73.79v41.65h38.55v-41.65H11.9ZM43.8,86.4c-3.4,2.4-6.4,5.3-9.1,8.6-2.4,3-4.5,6.4-6.2,9.9l-1.7,3.5-9.8-11.2,3.8-3.4,4.8,5.5c1.4-2.5,3-5,4.8-7.2l.2-.3c2.9-3.7,6.3-6.9,10.1-9.6l.8-.6h.1l3,4.2-.8.6Z" style="fill:#df5504;"/><polygon points="83.05 116.21 77.75 113.61 77.85 128.71 106.35 129 106.35 127.71 83.05 116.21 83.05 116.21" style="fill:#df5504;"/><path d="M106.35,121.51v-13.2c5.1,1.1,11.1,2.4,11.1,2.4l-18.2-8.9h0c0,.1-21.5-10.4-21.5-10.4v16.2l-8.5-4.3v2.1l5.6,2.8v1.9l17.2,8.5,18.7,9.2h0l3.3,1.6v-1.9l-17.2-8.7h0l-.4-.2v-2l9.9,5v-.1Z" style="fill:#df5504;"/><polygon points="140.05 50.23 140.05 48.33 134.35 45.43 134.35 35.83 100.05 35.83 86.75 29.13 86.75 31.23 95.95 35.83 95.85 35.83 101.95 38.93 101.95 38.83 117.15 46.53 117.15 46.53 134.35 55.03 134.35 49.43 120.65 42.63 120.65 40.53 122.85 41.63 122.85 41.73 140.05 50.23" style="fill:#df5504;"/><rect x="59.84" y="85.16" width="13.33" height="3.14" style="fill:#df5504; stroke:#df5504; stroke-miterlimit:10;"/><polygon points="102.9 17 102.9 20.1 120.6 20.1 120.6 28.6 123.7 28.6 123.7 17 102.9 17" style="fill:#df5504; stroke:#df5504; stroke-miterlimit:10;"/><rect x="86.75" y="17" width="17.68" height="3.1" style="fill:#df5504; stroke:#df5504; stroke-miterlimit:10;"/><polygon points="121.55 70.16 121.55 85.2 110.85 85.2 110.85 88.3 124.65 88.3 124.65 70.16 121.55 70.16" style="fill:#df5504; stroke:#df5504; stroke-miterlimit:10;"/><rect x="2.89" y="1.58" width="83.86" height="7.61" style="fill:#df5504; stroke:#df5504; stroke-miterlimit:10;"/><polygon points="41.6 122.98 41.5 122.98 36.54 122.98 3.7 122.98 3.7 89.71 3.7 85.18 3.7 82.08 .5 82.08 .5 126.18 44.6 126.18 44.6 122.98 41.6 122.98" style="fill:#df5504; stroke:#df5504; stroke-miterlimit:10;"/><rect x="3.3" y="79.29" width="3.1" height="8.7" transform="translate(88.48 78.79) rotate(90)" style="fill:#df5504; stroke:#df5504; stroke-miterlimit:10;"/><rect x="41.5" y="116.11" width="3.1" height="8.7" transform="translate(86.1 240.92) rotate(180)" style="fill:#df5504; stroke:#df5504; stroke-miterlimit:10;"/><polygon points="4.85 7.8 4.04 7.8 4.04 3.7 4.85 3.7 4.85 .5 .94 .5 .94 64.3 4.14 64.3 4.14 61.2 4.14 58.5 4.14 10.9 4.85 10.9 4.85 7.8" style="fill:#df5504; stroke:#df5504; stroke-miterlimit:10;"/><path d="M11.9.5v3.2h73.3v4.1H11.9v3.1h73.4v6.1H26v44.2h-14.1v3.1h14v8.1H8.7v9.8h.1v34.3h44v-28.2h11.8v-3.1h-11.8v-12.8h-23.8V20.1h59.4V.5H11.9ZM49.7,75.5v37.8H11.9v-37.8h37.8Z" style="fill:#df5504; stroke:#df5504; stroke-miterlimit:10;"/><rect x="1.78" y="61.23" width="11.92" height="3.07" style="fill:#df5504; stroke:#df5504; stroke-miterlimit:10;"/><rect x="1.78" y="7.8" width="13.96" height="3.04" style="fill:#df5504; stroke:#df5504; stroke-miterlimit:10;"/><rect x="1.78" y=".5" width="16.51" height="3.2" style="fill:#df5504; stroke:#df5504; stroke-miterlimit:10;"/><polygon points="119.35 49.43 119.15 49.43 101.95 40.93 91.65 35.73 50.45 35.73 50.45 65.13 76 65.13 78.15 65.13 106.85 65.13 108.63 65.13 134.55 65.13 134.55 57.13 119.35 49.43" style="fill:#df5504;"/><path d="M77.85,65.13v8.87c-1-.2-13-2.8-13-2.8l13.1,6.1,16.2,8,.7,2.4-16.9-8.3v1.9l28.6,13.9v-30.07h-28.7Z" style="fill:#df5504;"/></svg>